<?xml version="1.0" encoding="UTF-8"?>
<svg id="Capa_2" data-name="Capa 2" xmlns="http://www.w3.org/2000/svg" viewBox="0 0 83.83 16.18">
  <defs>
    <style>
      .cls-1 {
        fill: #fff;
      }
    </style>
  </defs>
  <g id="Capa_1-2" data-name="Capa 1">
    <path class="cls-1" d="M82.64,1.19c.79.79,1.19,1.75,1.19,2.87s-.4,2.08-1.19,2.88c-.79.8-1.75,1.2-2.87,1.2s-2.06-.4-2.85-1.2c-.79-.8-1.19-1.76-1.19-2.88s.4-2.08,1.19-2.87c.79-.79,1.74-1.19,2.85-1.19s2.08.4,2.87,1.19ZM77.34,1.62c-.67.68-1.01,1.5-1.01,2.46s.34,1.76,1.01,2.44,1.48,1.02,2.43,1.02,1.76-.34,2.44-1.02c.68-.68,1.02-1.49,1.02-2.44s-.34-1.78-1.02-2.46c-.68-.68-1.49-1.02-2.44-1.02s-1.76.34-2.43,1.02ZM79.75,2c1.24,0,1.86.4,1.86,1.2,0,.47-.25.8-.75.98.46.22.69.65.69,1.29,0,.24.04.44.13.62h-.73c-.04-.15-.07-.3-.08-.45,0-.16-.02-.26-.03-.32-.06-.4-.17-.64-.33-.72-.16-.08-.49-.12-.98-.12h-.62v1.62h-.69V2h1.53ZM79.71,3.88c.81,0,1.22-.23,1.22-.69,0-.16-.04-.29-.11-.38s-.2-.15-.37-.18-.29-.05-.35-.06c-.07,0-.2-.01-.41-.01h-.78v1.31h.8Z"/>
    <g>
      <path class="cls-1" d="M18.3,8.07c0-4.9,2.97-8.07,7.49-8.07,4.01,0,6.74,2.53,7.07,6.32h-2.55c-.27-2.44-1.97-4.08-4.52-4.08-2.97,0-4.88,2.31-4.88,5.85s1.95,5.85,4.88,5.85c2.59,0,4.43-1.71,4.7-4.15h2.51c-.29,3.84-3.13,6.39-7.18,6.39-4.54,0-7.52-3.19-7.52-8.12Z"/>
      <path class="cls-1" d="M37.9,7.21L33.24.33h2.95l3.77,5.72,3.77-5.72h2.93l-4.63,6.87c-.31.44-.27.84,0,1.24l5.03,7.41h-2.97l-4.12-6.16-4.12,6.16h-2.97l5.03-7.41c.29-.44.29-.82,0-1.24Z"/>
      <path class="cls-1" d="M47.21,10h2.5c0,2.73,1.6,3.99,4.35,3.99,2.44,0,3.57-1.02,3.57-2.48,0-1.29-.84-1.93-2.75-2.28l-2.13-.38c-3.5-.67-4.99-2.08-4.99-4.32,0-2.75,2.2-4.52,5.74-4.52,3.75,0,6.21,2.02,6.21,5.41h-2.44c-.04-2.22-1.53-3.26-3.79-3.26s-3.19.95-3.19,2.31c0,1.22.87,1.77,2.86,2.15l2.08.4c3.46.64,4.92,2.08,4.92,4.43,0,2.9-2.26,4.75-6.05,4.75-4.21,0-6.89-2.24-6.89-6.19Z"/>
      <path class="cls-1" d="M64.5,2.57h-4.04V.33h12.39v2.24h-4.04c-.58,0-.91.31-.91.89v12.39h-2.5V3.46c0-.58-.31-.89-.91-.89Z"/>
    </g>
    <path class="cls-1" d="M8.33,2.18l-4.65-.12,12.13,12.22-1.57,1.57L2.09,3.63l.12,4.46v7.76H0V0h15.8v2.18h-7.47Z"/>
  </g>
</svg>